<?xml version="1.0" encoding="utf-8"?>
<!-- Generator: Adobe Illustrator 24.3.0, SVG Export Plug-In . SVG Version: 6.00 Build 0)  -->
<svg version="1.1" id="Layer_1" xmlns="http://www.w3.org/2000/svg" xmlns:xlink="http://www.w3.org/1999/xlink" x="0px" y="0px"
	 width="46px" height="46px" viewBox="0 0 46 46" style="enable-background:new 0 0 46 46;" xml:space="preserve">
<g id="surface139263551">
	<path d="M23,0C10.3,0,0,10.3,0,23s10.3,23,23,23s23-10.3,23-23S35.7,0,23,0z M34.2,18.5c0,0.2,0,0.5,0,0.7
		c0,7.3-5.6,15.8-15.8,15.8c-3.1,0-6-0.9-8.5-2.5c0.4,0.1,0.9,0.1,1.3,0.1c2.6,0,5-0.9,6.9-2.4c-2.4,0-4.5-1.6-5.2-3.8
		c0.3,0.1,0.7,0.1,1,0.1c0.5,0,1-0.1,1.5-0.2c-2.5-0.5-4.4-2.8-4.4-5.4c0,0,0,0,0-0.1c0.7,0.4,1.6,0.7,2.5,0.7
		c-1.5-1-2.5-2.7-2.5-4.6c0-1,0.3-2,0.7-2.8c2.7,3.4,6.8,5.6,11.4,5.8c-0.1-0.4-0.1-0.8-0.1-1.3c0-3.1,2.5-5.5,5.5-5.5
		c1.6,0,3,0.7,4,1.8c1.3-0.2,2.4-0.7,3.5-1.3c-0.4,1.3-1.3,2.4-2.4,3.1c1.1-0.1,2.2-0.4,3.2-0.9C36.2,16.7,35.3,17.7,34.2,18.5z"/>
</g>
</svg>
