<svg width="14" height="14" viewBox="0 0 14 14" fill="none" xmlns="http://www.w3.org/2000/svg">
<path d="M13.2 5.72001C13.0127 5.49511 12.7783 5.31406 12.5133 5.18966C12.2484 5.06525 11.9594 5.00051 11.6667 5.00001H8.62667L9 4.04668C9.15529 3.62926 9.20701 3.18041 9.15071 2.73862C9.09442 2.29683 8.9318 1.87529 8.67679 1.51016C8.42179 1.14503 8.08202 0.847207 7.68663 0.642238C7.29124 0.437269 6.85203 0.331273 6.40667 0.333343C6.27843 0.33361 6.15299 0.37086 6.04538 0.440625C5.93778 0.51039 5.85258 0.609709 5.8 0.726676L3.9 5.00001H2.33334C1.8029 5.00001 1.2942 5.21072 0.919122 5.5858C0.54405 5.96087 0.333336 6.46958 0.333336 7.00001V11.6667C0.333336 12.1971 0.54405 12.7058 0.919122 13.0809C1.2942 13.456 1.8029 13.6667 2.33334 13.6667H10.82C11.2879 13.6665 11.7409 13.5023 12.1002 13.2027C12.4595 12.903 12.7025 12.4869 12.7867 12.0267L13.6333 7.36001C13.6857 7.0716 13.674 6.7752 13.5992 6.49179C13.5243 6.20839 13.388 5.94491 13.2 5.72001ZM3.66667 12.3333H2.33334C2.15653 12.3333 1.98696 12.2631 1.86193 12.1381C1.73691 12.0131 1.66667 11.8435 1.66667 11.6667V7.00001C1.66667 6.8232 1.73691 6.65363 1.86193 6.5286C1.98696 6.40358 2.15653 6.33334 2.33334 6.33334H3.66667V12.3333ZM12.3333 7.12001L11.4867 11.7867C11.4583 11.942 11.3757 12.0822 11.2536 12.1823C11.1315 12.2824 10.9779 12.3359 10.82 12.3333H5V5.80668L6.81334 1.72668C6.99999 1.78109 7.17334 1.87361 7.32244 1.9984C7.47154 2.12318 7.59315 2.27752 7.6796 2.45167C7.76605 2.62582 7.81546 2.816 7.82471 3.01021C7.83396 3.20442 7.80285 3.39843 7.73334 3.58001L7.38 4.53334C7.30471 4.73485 7.2793 4.95157 7.30592 5.16503C7.33254 5.37849 7.41042 5.58233 7.53289 5.75917C7.65537 5.93601 7.81881 6.08059 8.00927 6.18057C8.19974 6.28055 8.41156 6.33297 8.62667 6.33334H11.6667C11.7646 6.33318 11.8614 6.35461 11.9501 6.39609C12.0388 6.43757 12.1173 6.49809 12.18 6.57334C12.2442 6.64756 12.2913 6.73504 12.3178 6.82954C12.3443 6.92404 12.3496 7.02322 12.3333 7.12001Z" fill="#F97235"/>
</svg>
