<svg width="16" height="14" viewBox="0 0 16 14" fill="none" xmlns="http://www.w3.org/2000/svg">
<path d="M0.948997 13.691C0.98931 13.7771 1.05334 13.8499 1.13357 13.9009C1.21381 13.952 1.30692 13.979 1.402 13.979C2.837 13.979 4.051 13.63 5.43 12.817C6.099 12.923 7.42 13.054 8 13.054C12.378 13.054 15.939 10.131 15.939 6.537C15.939 2.943 12.378 0.0209961 8 0.0209961C3.622 0.0209961 0.060997 2.943 0.060997 6.537C0.060997 8.231 0.877997 9.868 2.316 11.081C1.98408 11.8312 1.54739 12.5305 1.019 13.158C0.894997 13.308 0.866997 13.516 0.948997 13.691ZM1.061 6.537C1.061 3.495 4.174 1.02 8 1.02C11.826 1.02 14.939 3.495 14.939 6.537C14.939 9.579 11.826 12.054 8 12.054C7.426 12.054 5.932 11.9 5.427 11.802C5.30482 11.7801 5.17883 11.8028 5.072 11.866C4.14 12.436 3.327 12.762 2.457 12.9C2.82977 12.337 3.14153 11.736 3.387 11.107C3.42672 11.0057 3.4322 10.8941 3.40258 10.7894C3.37297 10.6847 3.3099 10.5925 3.223 10.527C1.828 9.471 1.061 8.053 1.061 6.537Z" fill="#F97235"/>
</svg>
