<?xml version="1.0" encoding="utf-8"?>
<!-- Generator: Adobe Illustrator 24.3.0, SVG Export Plug-In . SVG Version: 6.00 Build 0)  -->
<svg version="1.1" id="Layer_1" xmlns="http://www.w3.org/2000/svg" xmlns:xlink="http://www.w3.org/1999/xlink" x="0px" y="0px"
	 width="46px" height="46px" viewBox="0 0 46 46" style="enable-background:new 0 0 46 46;" xml:space="preserve">
<g id="surface139299508">
	<path d="M23,0C10.3,0,0,10.3,0,23s10.3,23,23,23s23-10.3,23-23S35.7,0,23,0z M16.8,33.6h-4.4V17.7h4.4V33.6z M14.6,15.9L14.6,15.9
		c-1.3,0-2.2-1-2.2-2.2c0-1.3,0.9-2.2,2.2-2.2c1.3,0,2.2,1,2.2,2.2C16.8,14.9,16,15.9,14.6,15.9z M33.6,33.6h-4.4v-8
		c0-2.7-1.3-3.5-2.7-3.5c-1.3,0-2.7,0.9-2.7,3.5v8h-4.4V17.7h4.4v2.7c0.3-0.9,1.8-2.7,4.4-2.7c3.5,0,5.3,2.7,5.3,7.1V33.6z"/>
</g>
</svg>
