<?xml version="1.0" encoding="utf-8"?>
<!-- Generator: Adobe Illustrator 24.3.0, SVG Export Plug-In . SVG Version: 6.00 Build 0)  -->
<svg version="1.1" id="Layer_1" xmlns="http://www.w3.org/2000/svg" xmlns:xlink="http://www.w3.org/1999/xlink" x="0px" y="0px"
	 width="46px" height="46px" viewBox="0 0 46 46" style="enable-background:new 0 0 46 46;" xml:space="preserve">
<g id="surface139071238">
	<path d="M15.8,46c0.7-0.3,1.2-1,1.2-1.9v-5.5c0-0.2,0-0.4,0-0.6c0,0,0,0,0,0c0,0-3,0-3.6,0c-1.5,0-2.8-0.6-3.4-1.8
		c-0.7-1.3-1-3.6-2.8-4.8c-0.3-0.2-0.1-0.5,0.5-0.5c0.6,0.1,1.9,0.9,2.7,2.1c0.9,1.1,1.8,2.1,3.4,2.1c2.5,0,3.8-0.1,4.6-0.6
		c0.9-1.4,2.2-2.5,3.6-2.5v0c-5.7-0.2-9.3-2.1-11-5.1c-3.7,0-6.9,0.4-8.7,0.7c-0.1-0.3-0.1-0.7-0.2-1c1.8-0.3,4.8-0.7,8.3-0.7
		c-0.1-0.3-0.2-0.6-0.3-0.9c-3.5-0.2-6.5,0-8.2,0.1c0-0.3,0-0.7-0.1-1c1.6-0.1,4.6-0.3,8-0.1c-0.1-0.5-0.1-1-0.1-1.6
		c0-1.7,0.6-3.6,1.7-5.1c-0.5-1.7-1.2-5.4,0.2-6.8c2.7,0,4.6,1.3,5.5,2.2c1.7-0.7,3.6-1.1,5.7-1.1s4,0.4,5.6,1.1
		c0.9-0.8,2.8-2.2,5.5-2.2c1.5,1.4,0.7,5.1,0.2,6.8c1.1,1.5,1.7,3.3,1.6,5.1c0,0.5,0,1-0.1,1.4c3.5-0.2,6.5,0,8.2,0.1
		c0,0.3,0,0.7-0.1,1c-1.7-0.1-4.8-0.3-8.3-0.1c-0.1,0.3-0.2,0.7-0.3,1c3.5,0,6.7,0.4,8.5,0.7c0,0.3-0.1,0.7-0.2,1
		c-1.9-0.3-5.2-0.7-8.9-0.7c-1.7,2.9-5.2,4.9-10.8,5.1v0c2.6,0,5,4,5,6.8v5.5c0,0.8,0.5,1.6,1.2,1.9C39.3,42.9,46,34,46,23.6
		C46,10.6,35.7,0,23,0S0,10.6,0,23.6C0,34,6.6,42.9,15.8,46z"/>
</g>
</svg>
